<mxfile host="app.diagrams.net" modified="2023-09-26T14:04:45.290Z" agent="Mozilla/5.0 (Windows NT 10.0; Win64; x64) AppleWebKit/537.36 (KHTML, like Gecko) Chrome/117.0.0.0 Safari/537.36" etag="b601w8P7uZiOh1gHWRaB" version="21.7.4" type="device">
  <diagram name="Page-1" id="DtW9dGnuzczb5X8nfKc1">
    <mxGraphModel dx="1290" dy="577" grid="1" gridSize="10" guides="1" tooltips="1" connect="1" arrows="1" fold="1" page="1" pageScale="1" pageWidth="850" pageHeight="1100" background="none" math="0" shadow="0">
      <root>
        <mxCell id="0" />
        <mxCell id="1" parent="0" />
        <mxCell id="REaHtdp4JO85-iiaZNRU-7" value="&lt;font style=&quot;font-size: 14px;&quot;&gt;companyname&lt;/font&gt;" style="text;html=1;align=center;verticalAlign=middle;resizable=0;points=[];autosize=1;strokeColor=none;fillColor=none;" parent="1" vertex="1">
          <mxGeometry x="477.25" y="459" width="120" height="30" as="geometry" />
        </mxCell>
        <mxCell id="REaHtdp4JO85-iiaZNRU-8" value="&lt;font style=&quot;font-size: 14px;&quot;&gt;www&lt;/font&gt;" style="text;html=1;align=center;verticalAlign=middle;resizable=0;points=[];autosize=1;strokeColor=none;fillColor=none;" parent="1" vertex="1">
          <mxGeometry x="432.25" y="459" width="50" height="30" as="geometry" />
        </mxCell>
        <mxCell id="REaHtdp4JO85-iiaZNRU-9" value="&lt;font style=&quot;font-size: 14px;&quot;&gt;https&lt;/font&gt;" style="text;html=1;align=center;verticalAlign=middle;resizable=0;points=[];autosize=1;strokeColor=none;fillColor=none;" parent="1" vertex="1">
          <mxGeometry x="362.25" y="459" width="50" height="30" as="geometry" />
        </mxCell>
        <mxCell id="REaHtdp4JO85-iiaZNRU-10" value="&lt;font style=&quot;font-size: 14px;&quot;&gt;com&lt;/font&gt;" style="text;html=1;align=center;verticalAlign=middle;resizable=0;points=[];autosize=1;strokeColor=none;fillColor=none;" parent="1" vertex="1">
          <mxGeometry x="592.25" y="459" width="50" height="30" as="geometry" />
        </mxCell>
        <mxCell id="REaHtdp4JO85-iiaZNRU-20" value="" style="endArrow=classic;html=1;rounded=0;" parent="1" edge="1">
          <mxGeometry width="50" height="50" relative="1" as="geometry">
            <mxPoint x="386.75" y="459" as="sourcePoint" />
            <mxPoint x="386.75" y="429" as="targetPoint" />
          </mxGeometry>
        </mxCell>
        <mxCell id="REaHtdp4JO85-iiaZNRU-24" value="" style="endArrow=classic;html=1;rounded=0;" parent="1" edge="1">
          <mxGeometry width="50" height="50" relative="1" as="geometry">
            <mxPoint x="452.25" y="459" as="sourcePoint" />
            <mxPoint x="452.25" y="429" as="targetPoint" />
          </mxGeometry>
        </mxCell>
        <mxCell id="REaHtdp4JO85-iiaZNRU-25" value="" style="endArrow=classic;html=1;rounded=0;" parent="1" edge="1">
          <mxGeometry width="50" height="50" relative="1" as="geometry">
            <mxPoint x="536.75" y="459" as="sourcePoint" />
            <mxPoint x="536.75" y="429" as="targetPoint" />
          </mxGeometry>
        </mxCell>
        <mxCell id="REaHtdp4JO85-iiaZNRU-26" value="" style="endArrow=classic;html=1;rounded=0;" parent="1" edge="1">
          <mxGeometry width="50" height="50" relative="1" as="geometry">
            <mxPoint x="616.75" y="459" as="sourcePoint" />
            <mxPoint x="616.75" y="429" as="targetPoint" />
          </mxGeometry>
        </mxCell>
        <mxCell id="REaHtdp4JO85-iiaZNRU-28" value="" style="endArrow=classic;html=1;rounded=0;" parent="1" edge="1">
          <mxGeometry width="50" height="50" relative="1" as="geometry">
            <mxPoint x="627.25" y="370" as="sourcePoint" />
            <mxPoint x="627.25" y="340" as="targetPoint" />
          </mxGeometry>
        </mxCell>
        <mxCell id="REaHtdp4JO85-iiaZNRU-29" value="&lt;font style=&quot;font-size: 14px;&quot;&gt;Dense&lt;/font&gt;" style="rounded=0;whiteSpace=wrap;html=1;" parent="1" vertex="1">
          <mxGeometry x="617.25" y="290" width="120" height="50" as="geometry" />
        </mxCell>
        <mxCell id="REaHtdp4JO85-iiaZNRU-30" value="" style="endArrow=classic;html=1;rounded=0;" parent="1" edge="1">
          <mxGeometry width="50" height="50" relative="1" as="geometry">
            <mxPoint x="707.25" y="370" as="sourcePoint" />
            <mxPoint x="707.25" y="340" as="targetPoint" />
          </mxGeometry>
        </mxCell>
        <mxCell id="REaHtdp4JO85-iiaZNRU-31" value="&lt;font style=&quot;font-size: 14px;&quot;&gt;URL length&lt;/font&gt;" style="text;html=1;align=center;verticalAlign=middle;resizable=0;points=[];autosize=1;strokeColor=none;fillColor=none;" parent="1" vertex="1">
          <mxGeometry x="667.25" y="370" width="90" height="30" as="geometry" />
        </mxCell>
        <mxCell id="REaHtdp4JO85-iiaZNRU-33" value="" style="endArrow=classic;html=1;rounded=0;" parent="1" edge="1">
          <mxGeometry width="50" height="50" relative="1" as="geometry">
            <mxPoint x="677.25" y="290" as="sourcePoint" />
            <mxPoint x="677.25" y="260" as="targetPoint" />
          </mxGeometry>
        </mxCell>
        <mxCell id="REaHtdp4JO85-iiaZNRU-34" value="&lt;font style=&quot;font-size: 14px;&quot;&gt;Malicious&lt;br&gt;or&lt;br&gt;Benign&lt;/font&gt;" style="ellipse;whiteSpace=wrap;html=1;aspect=fixed;" parent="1" vertex="1">
          <mxGeometry x="637.38" y="181" width="79.75" height="79.75" as="geometry" />
        </mxCell>
        <mxCell id="REaHtdp4JO85-iiaZNRU-45" value="&lt;font style=&quot;font-size: 14px;&quot;&gt;BiLSTM&lt;/font&gt;" style="rounded=0;whiteSpace=wrap;html=1;" parent="1" vertex="1">
          <mxGeometry x="365" y="370" width="280" height="60" as="geometry" />
        </mxCell>
        <mxCell id="REaHtdp4JO85-iiaZNRU-53" value="&lt;b&gt;&lt;font style=&quot;font-size: 14px;&quot;&gt;PhishTank&lt;/font&gt;&lt;/b&gt;" style="shape=datastore;whiteSpace=wrap;html=1;fillColor=#007FFF;" parent="1" vertex="1">
          <mxGeometry x="210" y="181" width="90" height="100" as="geometry" />
        </mxCell>
        <mxCell id="REaHtdp4JO85-iiaZNRU-61" value="&lt;b style=&quot;border-color: var(--border-color);&quot;&gt;&lt;font style=&quot;font-size: 14px;&quot;&gt;URL Corpus&lt;/font&gt;&lt;/b&gt;" style="verticalLabelPosition=bottom;verticalAlign=top;html=1;shape=mxgraph.basic.diag_snip_rect;dx=6;whiteSpace=wrap;" parent="1" vertex="1">
          <mxGeometry x="210" y="540" width="230" height="60" as="geometry" />
        </mxCell>
        <mxCell id="REaHtdp4JO85-iiaZNRU-57" value="" style="outlineConnect=0;dashed=0;verticalLabelPosition=bottom;verticalAlign=top;align=center;html=1;shape=mxgraph.aws3.workdocs;fillColor=#D16A28;gradientColor=#F58435;gradientDirection=north;" parent="1" vertex="1">
          <mxGeometry x="237.75" y="550" width="40" height="40" as="geometry" />
        </mxCell>
        <mxCell id="REaHtdp4JO85-iiaZNRU-58" value="" style="outlineConnect=0;dashed=0;verticalLabelPosition=bottom;verticalAlign=top;align=center;html=1;shape=mxgraph.aws3.workdocs;fillColor=#D16A28;gradientColor=#F58435;gradientDirection=north;" parent="1" vertex="1">
          <mxGeometry x="280.25" y="550" width="40" height="40" as="geometry" />
        </mxCell>
        <mxCell id="REaHtdp4JO85-iiaZNRU-59" value="" style="outlineConnect=0;dashed=0;verticalLabelPosition=bottom;verticalAlign=top;align=center;html=1;shape=mxgraph.aws3.workdocs;fillColor=#D16A28;gradientColor=#F58435;gradientDirection=north;" parent="1" vertex="1">
          <mxGeometry x="322.25" y="550" width="40" height="40" as="geometry" />
        </mxCell>
        <mxCell id="REaHtdp4JO85-iiaZNRU-62" value="&lt;b&gt;&lt;font style=&quot;font-size: 14px;&quot;&gt;Customised FastText Embedding&lt;/font&gt;&lt;/b&gt;" style="rounded=1;whiteSpace=wrap;html=1;absoluteArcSize=1;arcSize=14;strokeWidth=2;" parent="1" vertex="1">
          <mxGeometry x="225.12" y="400" width="90" height="80" as="geometry" />
        </mxCell>
        <mxCell id="REaHtdp4JO85-iiaZNRU-63" value="" style="shape=singleArrow;direction=north;whiteSpace=wrap;html=1;" parent="1" vertex="1">
          <mxGeometry x="250" y="490" width="20" height="40" as="geometry" />
        </mxCell>
        <mxCell id="REaHtdp4JO85-iiaZNRU-65" value="" style="endArrow=classic;html=1;rounded=0;" parent="1" edge="1">
          <mxGeometry width="50" height="50" relative="1" as="geometry">
            <mxPoint x="317.25" y="419.5" as="sourcePoint" />
            <mxPoint x="360" y="420" as="targetPoint" />
          </mxGeometry>
        </mxCell>
        <mxCell id="REaHtdp4JO85-iiaZNRU-66" value="" style="outlineConnect=0;dashed=0;verticalLabelPosition=bottom;verticalAlign=top;align=center;html=1;shape=mxgraph.aws3.workdocs;fillColor=#D16A28;gradientColor=#F58435;gradientDirection=north;" parent="1" vertex="1">
          <mxGeometry x="365" y="550" width="40" height="40" as="geometry" />
        </mxCell>
        <mxCell id="REaHtdp4JO85-iiaZNRU-67" value="" style="shape=singleArrow;direction=north;whiteSpace=wrap;html=1;" parent="1" vertex="1">
          <mxGeometry x="370" y="490" width="20" height="40" as="geometry" />
        </mxCell>
        <mxCell id="REaHtdp4JO85-iiaZNRU-68" value="&lt;b&gt;&lt;font style=&quot;font-size: 14px;&quot;&gt;UNB Non-Phishing Data&lt;/font&gt;&lt;/b&gt;" style="shape=datastore;whiteSpace=wrap;html=1;fillColor=#007FFF;" parent="1" vertex="1">
          <mxGeometry x="315" y="181" width="90" height="100" as="geometry" />
        </mxCell>
        <mxCell id="REaHtdp4JO85-iiaZNRU-70" style="edgeStyle=orthogonalEdgeStyle;rounded=0;orthogonalLoop=1;jettySize=auto;html=1;exitX=0.1;exitY=0.5;exitDx=0;exitDy=0;exitPerimeter=0;entryX=0;entryY=0.5;entryDx=0;entryDy=0;entryPerimeter=0;" parent="1" source="REaHtdp4JO85-iiaZNRU-69" target="REaHtdp4JO85-iiaZNRU-61" edge="1">
          <mxGeometry relative="1" as="geometry">
            <Array as="points">
              <mxPoint x="302" y="360" />
              <mxPoint x="190" y="360" />
              <mxPoint x="190" y="570" />
            </Array>
          </mxGeometry>
        </mxCell>
        <mxCell id="REaHtdp4JO85-iiaZNRU-69" value="" style="shape=curlyBracket;whiteSpace=wrap;html=1;rounded=1;labelPosition=left;verticalLabelPosition=middle;align=right;verticalAlign=middle;direction=north;" parent="1" vertex="1">
          <mxGeometry x="242.25" y="290" width="120" height="20" as="geometry" />
        </mxCell>
      </root>
    </mxGraphModel>
  </diagram>
</mxfile>
